<svg version="1.1" xmlns="http://www.w3.org/2000/svg" xmlns:xlink="http://www.w3.org/1999/xlink" width="264.14943" height="206.86406" viewBox="0,0,264.14943,206.86406"><g transform="translate(-38.05889,-146.93646)"><g data-paper-data="{&quot;isPaintingLayer&quot;:true}" fill="#ff0000" fill-rule="nonzero" stroke="none" stroke-width="0.5" stroke-linecap="butt" stroke-linejoin="miter" stroke-miterlimit="10" stroke-dasharray="" stroke-dashoffset="0" style="mix-blend-mode: normal"><path d="M184.02416,175.53023l-0.21704,-0.07544l-0.67608,0.16902c0.28616,-0.03144 0.5877,-0.05795 0.89312,-0.09358zM180.31329,176.45045l-0.0068,-0.00219v0.00487c0.00227,-0.00089 0.00453,-0.00179 0.0068,-0.00268zM178.99182,177.04641c0.13075,0.11121 0.28261,0.02646 0.44194,-0.0993l-0.51717,0c0.01617,0.03648 0.04056,0.06981 0.07523,0.0993zM186.24856,180.74834c0.04641,-0.04687 0.08326,-0.09804 0.11224,-0.15278c-0.23713,0.04554 -0.48141,0.05783 -0.72948,0.0539c0.23391,0.15641 0.45094,0.26681 0.61724,0.09888zM183.31568,157.33922c0.91079,-1.41453 1.75909,-2.88799 3.21502,-3.60591c1.99171,-0.98212 8.96937,-0.42306 11.35993,-0.29581c1.72596,0.09187 3.807,-0.59897 5.1637,0.47189c1.43674,1.13403 2.01179,3.30736 1.94158,5.13638c-0.06008,1.56513 -4.25261,6.15509 -4.92587,7.37135c-1.31327,2.37243 -2.41922,4.85385 -3.63555,7.27741c-0.4739,0.94425 -0.45551,2.1154 -1.04464,2.99239c-1.2164,1.81074 -3.46379,2.78229 -4.6274,4.6274c-0.68198,1.0814 -0.53301,2.77147 -1.59033,3.49022c-0.84485,0.57431 -5.62494,0.47189 -7.01466,0.47189c-4.55922,0 -10.30065,0.36798 -13.30996,-4.0968c-0.55914,-0.82957 0.26466,-2.06997 -0.10551,-2.99938c-0.28743,-0.72167 -1.38337,-0.8743 -1.71676,-1.57592c-1.61745,-3.40395 -1.24998,-6.89206 -1.24998,-10.48655c0,-4.34336 -0.65084,-10.2552 4.31973,-12.48999c3.40787,-1.53219 8.00162,0.11857 10.67279,2.08053c0.78221,0.57453 1.76221,1.03215 2.54792,1.63088z"/><path d="M236.0645,161.02911c1.38675,2.08013 -0.69338,3.46688 -0.69338,3.46688l-2.57822,1.70419c-3.08519,2.39508 1.52041,3.13917 3.56746,3.00277c0.47464,-0.03163 1.11289,0.14666 1.40913,-0.22553c0.44715,-0.56179 0.13829,-1.45901 0.44746,-2.10705c0.42277,-0.88614 1.37272,-1.47828 1.70402,-2.40252c0.54322,-1.51545 -0.17387,-3.21993 -0.10727,-4.82842c0.02523,-0.60936 0.46922,-1.27737 0.1903,-1.81973c-0.41606,-0.80903 -1.36781,-1.19986 -2.05172,-1.7998c-0.76328,-0.51284 -1.47174,-1.11863 -2.28985,-1.53853c-3.21546,-1.65034 -5.25853,-0.81711 -7.00178,1.9174c-2.64894,4.15519 -3.118,8.98435 -2.38885,13.94597c0.14184,0.96518 0.77053,1.81328 0.92548,2.77644c0.30207,1.87761 -0.83775,3.88618 -0.26353,5.69918c0.3259,1.02898 3.06993,0.5368 3.3487,0.53061c3.07987,-0.06842 6.1746,0 9.25481,0c0,0 2.5,0 2.5,2.5c0,2.5 -2.5,2.5 -2.5,2.5c-4.7315,0 -14.13344,1.85308 -17.01188,-3.17132c-1.29298,-2.25693 0.14326,-4.91095 -0.26353,-7.25755c-1.24187,-7.16373 -2.14079,-13.92952 2.23855,-20.29682c2.56349,-3.72715 5.07848,-5.56488 9.88443,-4.78289c3.13507,0.51012 4.14682,1.59325 6.7374,3.31081c1.16706,1.25103 2.74452,2.21862 3.50117,3.75309c0.55105,1.11752 0.15389,2.48768 0.1903,3.73315c0.02075,0.70964 0.00217,5.93156 -0.10727,6.27734c-0.37523,1.18553 -1.42799,2.04516 -1.9979,3.15036c-0.56842,1.10231 -0.48813,2.60901 -1.4035,3.44583c-1.09508,1.00111 -2.69186,1.31978 -4.14375,1.62543c-5.28414,1.11241 -12.27838,-2.66029 -10.114,-8.97731c0.41325,-1.20612 1.71713,-1.88507 2.57569,-2.82761l2.97466,-1.99773c0,0 2.08013,-1.38675 3.46688,0.69338z"/><path d="M281.08515,153.60392c-0.74161,5.60173 -0.1777,11.55466 -0.1777,17.14127c0,3.07059 0.40267,4.98569 0.8932,7.92887c0.06067,0.36403 0.10504,0.7356 0.12366,1.10809c1.23385,-2.31751 3.26456,-4.42258 4.44898,-6.49531c0.5128,-0.8974 0.48081,-2.04465 1.0133,-2.9305c0.47944,-0.79759 1.43326,-1.22412 1.94948,-1.99841c1.35217,-2.02814 2.43209,-4.29026 4.14506,-6.02446c0.92548,-0.61699 1.77228,-1.37258 2.77644,-1.85096c0.28274,-0.1347 1.17262,0.28749 0.93593,0.08239c-1.10824,-0.9603 -2.83856,-0.80254 -4.15126,-1.45613c-3.87786,-1.9308 -7.52722,-4.03888 -11.72344,-5.42696zM281.69205,148.53576l1.20789,0.40263c4.39534,1.47502 8.26962,3.63619 12.33906,5.6788c0.94423,0.47394 2.18948,0.35797 2.99239,1.04464c1.59692,1.36574 3.6755,2.82143 3.96211,4.90307c0.30276,2.19891 -4.11776,4.6855 -5.54243,5.63528c-1.43726,1.40822 -2.14269,3.40705 -3.25879,5.0813c-0.45187,0.67785 -1.33395,1.00456 -1.75244,1.70351c-0.47139,0.78731 -0.38238,1.82565 -0.83766,2.62238c-0.79438,1.39017 -2.0133,2.49971 -2.86426,3.85598c-0.79529,1.26753 -0.94386,2.9908 -2.05821,3.98946c-1.81084,1.62285 -3.95642,3.88209 -6.36672,3.56086c-3.75461,-0.5004 -2.31296,-5.52976 -2.64778,-7.53871c-0.16038,-0.96227 -0.77053,-1.81328 -0.92548,-2.77644c-0.47836,-2.97346 -0.03228,-6.65802 -0.03228,-9.65526c0,-6.12827 -0.46405,-12.21854 1.00012,-18.19047c0,0 0.60634,-2.42536 3.0317,-1.81902c1.07105,0.26776 1.55088,0.89027 1.75278,1.50198z"/><path d="M86.74974,320.75627c1.76777,1.76777 0,3.53553 0,3.53553l-0.87515,0.87367c-3.16972,3.35431 -5.56137,6.51691 -9.37592,9.19588c-2.20269,1.7615 -4.43953,3.48954 -6.7886,5.0505c-0.95903,0.63728 -3.22452,1.89466 -3.98605,3.08357c-2.87173,4.48339 -4.78295,10.32201 -10.88246,11.18623c-5.68379,0.80532 -6.65502,-2.59502 -9.0411,-6.76579c-4.61414,-8.06533 -7.68145,-15.95412 -7.74157,-25.31732c0,0 0,-2.5 2.5,-2.5c2.5,0 2.5,2.5 2.5,2.5c-0.06438,8.42953 2.90455,15.5037 7.0277,22.74031c0.17288,-0.80816 0.73578,-1.37105 0.73578,-1.37105l0.19325,0.84229c0,-6.78686 0,-13.57372 0,-20.36058c0,-4.84879 -1.24111,-11.7421 1.29885,-16.12202c0.87545,-1.50963 2.82727,-2.19183 3.70192,-3.70192c0.48895,-0.84417 0.41318,-1.94624 0.92548,-2.77644c1.64133,-2.65982 4.68463,-4.3036 7.02002,-6.17191c1.6735,-1.3388 3.13651,-3.013 5.0485,-3.98112c2.34803,-1.18891 5.0719,-1.53108 7.39344,-2.77094c1.00699,-0.5378 1.66719,-1.72514 2.77254,-2.01056c1.7448,-0.45054 3.61468,0.10286 5.40513,-0.10107c1.57196,-0.17905 5.09231,-2.31062 6.01146,-2.65344c0.16405,-0.06119 7.33674,-1.84957 7.66487,-1.93161c4.78459,-1.19363 9.44459,-3.01067 14.27033,-4.03402c4.24392,-0.89997 8.63621,-0.97626 12.86949,-1.57477c6.80937,-0.96273 13.52887,-3.62818 20.31928,-4.62197c1.53983,-0.22536 3.12155,0.16246 4.6687,-0.00543c2.56614,-0.27848 4.99062,-1.32747 7.51243,-1.87798c7.60568,-1.66031 14.95841,-3.5372 22.49521,-5.39972c4.48724,-2.10973 9.15559,-2.67866 13.67156,-4.5414c3.89403,-1.6062 6.8953,-6.66784 9.31769,-9.7326c2.05779,-2.60348 4.58452,-4.81578 6.61066,-7.44397c6.33422,-8.21639 6.67114,-19.02296 6.6831,-28.92167c-1.20889,-0.01943 -2.41172,-0.03408 -3.60539,-0.03408c-17.63732,0 -36.89664,1.74762 -53.25139,-5.78494c-1.87175,-0.86208 -5.63869,-2.67621 -7.19426,-4.2021c-1.41015,-1.38325 -2.30176,-3.23405 -3.70192,-4.6274c-0.68176,-0.67844 -4.0201,-3.95903 -4.24385,-4.51298c-0.46666,-1.15531 -0.12687,-2.48877 -0.1903,-3.73315c0,0 0,-2.5 2.5,-2.5c2.5,0 2.5,2.5 2.5,2.5c-0.27547,2.63415 1.08706,2.81959 2.96969,4.7106c1.39366,1.39986 2.32295,3.21308 3.70192,4.6274c0.88673,0.90946 5.05294,2.87516 5.76247,3.20175c15.61275,7.18639 34.30708,5.32083 51.14765,5.32083c7.61842,0 15.69778,0.68716 23.21236,-0.87945c3.09517,-0.64527 6.2171,-1.31432 9.15326,-2.48709c1.2928,-0.51637 2.26999,-1.72763 3.61266,-2.09535c2.11298,-0.5787 4.47438,0.60685 6.57234,-0.02412c2.20919,-0.66442 4.13624,-2.1076 6.35378,-2.74362c2.81653,-0.80782 5.79057,-0.93787 8.63808,-1.62859c2.1105,-0.51195 3.86003,-1.99683 5.84444,-2.87911c5.89643,-2.62159 10.92996,-5.46516 16.29604,-9.05433l2.77644,-1.85096c0,0 2.08013,-1.38675 3.46688,0.69338c1.38675,2.08013 -0.69338,3.46688 -0.69338,3.46688l-2.77644,1.85096c-5.57326,3.70438 -10.88302,6.72818 -17.02126,9.45528c-0.29229,0.12986 -5.66877,2.90577 -6.46761,3.11052c-2.84744,0.72981 -5.83792,0.83237 -8.66526,1.63659c-2.30065,0.6544 -4.2964,2.17601 -6.60295,2.80926c-2.05221,0.56342 -4.34432,-0.63001 -6.38439,-0.02412c-1.13498,0.33708 -1.91032,1.44697 -3.00995,1.88588c-3.25483,1.29915 -6.70563,2.07702 -10.13759,2.78648c-5.05606,1.04521 -10.32576,1.14693 -15.56258,1.08701c-0.02695,11.04873 -0.70307,22.70139 -7.71538,31.8835c-2.0285,2.65617 -4.58341,4.8768 -6.65431,7.50005c-2.3953,3.03416 -4.74375,6.553 -7.83049,8.9848c-4.94639,3.89687 -11.76182,4.25056 -17.40495,6.90014c-7.73489,1.95436 -15.28327,3.86558 -23.09537,5.57205c-0.03537,0.00773 -7.95338,1.95506 -7.97872,1.95794c-1.51894,0.17247 -3.07318,-0.22447 -4.58611,-0.00543c-6.81722,0.98698 -13.56152,3.64673 -20.40187,4.63284c-4.09542,0.5904 -8.33552,0.63375 -12.44392,1.50362c-4.76251,1.00837 -9.37233,2.81053 -14.09414,3.99335c-2.37974,0.59493 -4.84771,0.90453 -7.14282,1.77032c-2.73357,1.03119 -3.99728,2.53412 -6.94528,2.89945c-1.52036,0.18841 -3.10513,-0.4584 -4.59487,-0.10107c-0.85775,0.20574 -1.25833,1.27351 -2.03515,1.69136c-2.32469,1.25045 -5.046,1.61611 -7.41425,2.78195c-1.62178,0.79837 -2.79477,2.2935 -4.2063,3.42272c-1.74265,1.39412 -4.73851,2.86515 -5.93671,4.93386c-0.48895,0.84417 -0.41318,1.94624 -0.92548,2.77644c-0.91643,1.4851 -2.76441,2.23003 -3.70192,3.70192c-0.84778,1.33101 -0.56125,2.77891 -0.55211,4.23856c0.01933,3.08468 0,6.17006 0,9.25481c0,6.78686 0,13.57372 0,20.36058l-1.65771,2.69325c0,0 -1.55303,1.55303 -3.20344,0.29214c0.54833,1.30232 1.22318,2.32694 2.88618,1.95074c4.33895,-0.98154 5.41408,-5.95562 7.62716,-9.17435c2.58032,-3.75286 8.33717,-6.41395 11.84173,-9.21865c3.5888,-2.45863 5.76833,-5.47932 8.72885,-8.61967l0.97581,-0.97729c0,0 1.76777,-1.76777 3.53553,0z"/></g></g></svg>